<?xml version="1.0" encoding="utf-8"?><!-- Uploaded to: SVG Repo, www.svgrepo.com, Generator: SVG Repo Mixer Tools -->
<svg fill="#000000" width="800px" height="800px" viewBox="0 0 24 24" id="cart-add" data-name="Flat Color" xmlns="http://www.w3.org/2000/svg" class="icon flat-color"><path id="secondary" d="M14,12a1,1,0,0,1-1-1V9H11a1,1,0,0,1,0-2h2V5a1,1,0,0,1,2,0V7h2a1,1,0,0,1,0,2H15v2A1,1,0,0,1,14,12Zm3,7a1.5,1.5,0,1,0,1.5,1.5A1.5,1.5,0,0,0,17,19Zm-6,0a1.5,1.5,0,1,0,1.5,1.5A1.5,1.5,0,0,0,11,19Z" style="fill: rgb(44, 169, 188);"></path><path id="primary" d="M18.22,17H9.8a2,2,0,0,1-2-1.55L5.2,4H3A1,1,0,0,1,3,2H5.2a2,2,0,0,1,2,1.55L9.8,15h8.42L20,7.76A1,1,0,0,1,22,8.24l-1.81,7.25A2,2,0,0,1,18.22,17Z" style="fill: rgb(0, 0, 0);"></path></svg>